# xmcd
#
# Track frame offsets:
#	150
#	12817
#	21405
#	34475
#	49172
#	59717
#	72850
#	85307
#	100802
#	112155
#	122222
#	136577
#	148042
#	161182
#	173097
#	182412
#	193860
#	205345
#	217492
#	227312
#
# Disc length: 3178 seconds
#
# Revision: 0
# Processed by: cddbd v1.5PL3 Copyright (c) Steve Scherf et al.
# Submitted via: dBpowerAMP V4.0
#
DISCID=2f0c6814
DTITLE=Lorenzo de Monteclaro - 20 Exitos
DYEAR=2002
DGENRE=Ranchera
TTITLE0=El ausente
TTITLE1=Con sombrero ajeno
TTITLE2=Que vuelva conmigo
TTITLE3=Adios amor
TTITLE4=He perdido una perla
TTITLE5=Huerfano y ciego
TTITLE6=7. Madre mia
TTITLE7=El cristo
TTITLE8=Cuidado con esa prieta
TTITLE9=Mi corazon sigue sangrando
TTITLE10=Tomas no tomes mas
TTITLE11=Lastima que seas casada
TTITLE12=Soy norteño
TTITLE13=Felicidades
TTITLE14=Amor y paz
TTITLE15=Carta abierta
TTITLE16=Cumpliremos el pacto
TTITLE17=Por infamias del destino
TTITLE18=El rastrillo
TTITLE19=Fracase
EXTD=
EXTT0=
EXTT1=
EXTT2=
EXTT3=
EXTT4=
EXTT5=
EXTT6=
EXTT7=
EXTT8=
EXTT9=
EXTT10=
EXTT11=
EXTT12=
EXTT13=
EXTT14=
EXTT15=
EXTT16=
EXTT17=
EXTT18=
EXTT19=
PLAYORDER=
